# xmcd
#
# Track frame offsets: 
#        182
#        12762
#        25012
#        45872
#        62592
#        74775
#        93845
#        106092
#        119832
#        137072
#
# Disc length: 2008 seconds
#
# Revision: 6
# Processed by: cddbd v1.5.2PL0 Copyright (c) Steve Scherf et al.
# Submitted via: ExactAudioCopy v0.99pb4
#
DISCID=7e07d60a
DTITLE=Kenny Rogers - Christmas Wishes from Kenny Rogers
DYEAR=1981
DGENRE=country
TTITLE0=White Christmas
TTITLE1=Carol of the Bells
TTITLE2=O Holy Night
TTITLE3=Christmas Everyday
TTITLE4=Kids
TTITLE5=Kentucky Homemade Christmas
TTITLE6=Christmas is My Favorite Time of the Year
TTITLE7=Sweet Little Jesus Boy
TTITLE8=When a Child is Born
TTITLE9=My Favorite Things
EXTD=
EXTT0=
EXTT1=
EXTT2=
EXTT3=
EXTT4=
EXTT5=
EXTT6=
EXTT7=
EXTT8=
EXTT9=
PLAYORDER=
